# xmcd
#
# Track frame offsets: 
#        150
#        21250
#        61630
#        83812
#        107540
#        135187
#        153265
#        176060
#        208190
#        255305
#        277682
#
# Disc length: 4120 seconds
#
# Revision: 3
# Processed by: cddbd v1.5.1PL0 Copyright (c) Steve Scherf et al.
# Submitted via: ExactAudioCopy v0.95b2
#
DISCID=7f10160b
DTITLE=Various Artist - 32 Gems from 32 Jazz - Disc 1
DYEAR=1998
DGENRE=Jazz
TTITLE0=Eddie Davis - When Your Lover Has Gone
TTITLE1=Les McCann - Doin' That Thing
TTITLE2=Nat Adderley - Mo's Theme
TTITLE3=Etta Jones - My Romance
TTITLE4=Jack McDuff - Cap'n Jack
TTITLE5=Sonny Criss - All The Things You Are
TTITLE6=Grant Green - Iron City
TTITLE7=Houston Person and Ron Carter - Blue Seven
TTITLE8=Pat Martino - Sunny
TTITLE9=David Newman - Shana
TTITLE10=Ernie Andrews - The Great City
EXTD=
EXTT0=
EXTT1=
EXTT2=
EXTT3=
EXTT4=
EXTT5=
EXTT6=
EXTT7=
EXTT8=
EXTT9=
EXTT10=
PLAYORDER=
